<?xml version="1.0" encoding="UTF-8"?>
<svg width="80px" height="44px" viewBox="0 0 80 44" version="1.1" xmlns="http://www.w3.org/2000/svg" xmlns:xlink="http://www.w3.org/1999/xlink">
    <!-- Generator: sketchtool 52.1 (67048) - http://www.bohemiancoding.com/sketch -->
    <title>148FC757-DD03-42E6-8365-33DEE9A1247A@1,5x</title>
    <desc>Created with sketchtool.</desc>
    <g id="Welcome" stroke="none" stroke-width="1" fill="none" fill-rule="evenodd">
        <g id="P1" transform="translate(-172.000000, -7.000000)">
            <g id="Group-33" transform="translate(172.000000, 7.000000)">
                <path d="M45.3198222,12.4331977 C45.3198222,13.6470349 43.5384889,14.9708721 39.8389333,14.8887558 C36.1403937,14.8048488 34.8245841,13.4017093 34.7712508,12.5984535 C34.7151238,11.794686 35.729473,11.2193605 35.729473,11.2193605 L35.729473,8.56989535 C35.7726476,8.0280814 36.3153778,7.80987209 36.5469968,7.74182558 C36.5411556,7.67173256 36.5426794,7.6267093 36.5426794,7.6267093 L36.5426794,4.43747674 C36.5675683,3.87494186 37.8485841,2.7555 40.1467429,2.7920814 C42.4464254,2.82866279 43.5024254,3.62398837 43.5024254,4.4825 C43.5024254,4.98082558 42.9863619,5.99282558 40.5843302,5.90277907 C38.4042667,5.82117442 38.6473143,4.71094186 38.6473143,4.71094186 C38.6473143,4.71094186 38.6564571,4.16784884 39.4183619,4.02561628 C40.5035683,3.8207093 41.4150603,4.26224419 41.5430603,4.38477907 C41.6741079,4.50756977 41.3754413,4.56768605 41.2431238,4.50603488 C40.209981,4.02510465 39.3520762,4.38426744 39.3520762,4.38426744 C39.3520762,4.38426744 39.0523937,4.49119767 39.0447746,4.72782558 C39.0374095,4.9647093 39.281473,5.06856977 39.4422349,5.11154651 C40.1147429,5.29087209 42.697346,5.55973256 42.9759492,4.53110465 C43.1496635,3.89131395 42.1160127,3.33056977 40.0441397,3.36766279 C39.3840762,3.37866279 37.1864889,3.71556977 37.1986794,4.5722907 C37.2108698,5.42824419 37.1986794,7.07287209 37.1986794,7.07287209 L37.1986794,7.6267093 C37.1986794,7.6267093 38.5528381,8.1969186 40.3450921,8.16187209 C41.5072508,8.13961628 43.1184254,7.85719767 43.4531556,7.59882558 C43.9974095,7.1775 43.7226159,8.13245349 43.2931556,8.49545349 C42.9632508,8.77582558 41.7830603,9.02473256 40.3577905,9.00631395 C39.369346,8.99377907 38.3471238,8.92394186 37.3822984,8.58140698 C37.0381714,8.45963953 36.7430603,8.26777907 36.6902349,8.17261628 C36.6318222,8.07156977 36.6450286,8.32789535 36.6450286,8.32789535 L36.6859175,12.4360116 C36.6859175,12.4360116 36.4964571,13.8391512 40.0441397,14.0325465 C43.5915683,14.2261977 44.2473143,12.5155698 44.2473143,12.5155698 C44.2473143,12.5155698 44.2488381,11.2858721 44.2473143,11.1914767 C44.2455365,10.9919419 44.6526476,11.2313837 44.8286476,11.4035465 C45.2822349,11.8435465 45.3198222,12.4331977 45.3198222,12.4331977 M40.0441397,0.167430233 C35.1524571,0.167430233 31.1869968,4.16196512 31.1869968,9.0897093 C31.1869968,14.0143837 35.1524571,18.0063605 40.0441397,18.0063605 C44.9353143,18.0063605 48.9012825,14.0143837 48.9012825,9.0897093 C48.9012825,4.16196512 44.9353143,0.167430233 40.0441397,0.167430233" id="Fill-1" fill="#00344E"></path>
                <path d="M13.966146,32.7114674 C13.5234794,33.1688628 11.5206857,34.0043512 10.3359238,33.0749791 C10.3476063,32.6493047 10.4240508,31.9033512 10.5444317,30.9578628 C10.8740825,28.4432116 11.5511619,24.5351419 12.3455746,21.5853512 C13.0394159,19.0085372 14.8080508,17.1638628 15.5293206,17.6143512 C17.3304635,18.7248395 16.8166857,29.7563047 13.966146,32.7114674 M32.6889397,21.2103279 C33.0231619,21.0545372 33.3053206,21.5735837 33.2037333,22.2494442 C33.0231619,23.5679093 31.8391619,25.332514 31.2476698,26.2120023 C31.6339556,25.3046302 32.0964317,21.548514 32.6889397,21.2103279 M43.3957333,27.0799791 C43.8099556,26.5903512 44.246781,26.796793 44.3763048,27.3158395 C44.5832889,28.247514 43.7053206,30.0384674 42.1878603,30.4273047 C42.2909714,29.6741884 42.9086222,27.676793 43.3957333,27.0799791 M46.7796063,28.9883512 C46.5548444,29.6915837 45.3208127,31.8002581 44.1617016,32.7541884 C44.1591619,32.7541884 44.1591619,32.7564907 44.1591619,32.7564907 C43.750273,33.0944209 43.350527,33.2883279 43.0097016,33.2253977 C42.3168762,33.0972349 41.9567492,31.6191419 42.1878603,31.0228395 C44.2975746,30.3221651 45.094527,28.482607 44.9170032,27.1344674 C44.7087492,25.5000721 43.4493206,25.1631651 42.3674159,25.9651419 C41.5133206,26.6210488 40.8451302,27.7335837 40.4560508,28.9423047 C39.3802413,30.4692581 38.5284317,32.2044442 36.6516063,33.0317465 C33.6651937,34.3809093 36.6516063,25.9799791 37.3744,25.9799791 C38.3526857,26.004793 37.4747175,27.5350721 37.4246857,27.7929326 C37.3995429,27.8722349 37.6052571,28.2600488 37.8607492,28.0003977 C38.6368762,27.2229791 38.7890032,25.3046302 37.1940825,25.0976767 C35.7787175,24.8927698 34.3948444,27.0380256 33.8030984,29.3173279 C32.9807492,30.4876767 31.6199873,32.9051186 30.9886222,32.5129558 C30.1670349,31.9957 31.0427175,28.5197 31.1945905,27.5852116 C31.8137651,26.524607 33.5641143,24.1923512 33.8455111,22.3254209 C34.1812571,20.3032116 32.4819556,18.7757465 31.1684317,20.2773744 C30.1512889,21.4630721 28.742273,26.6827 28.6411937,30.4413744 C27.9539556,31.5828163 27.1620825,32.8222349 26.7338921,32.5129558 C26.0121143,31.9678163 26.4743365,28.7261419 26.5794794,27.7420256 C26.7338921,26.5721884 25.3416381,25.9769093 24.774527,27.1170721 C24.3895111,27.9492349 24.262527,29.9949791 24.1837968,30.7716302 C23.6677333,31.888514 22.870273,32.7969093 22.3544635,32.5103977 C21.5326222,32.0440488 22.2790349,28.2572349 22.3041778,27.2731186 C22.4753524,26.1700488 21.0582095,25.6707 20.5126857,26.5839558 C20.5010032,26.5916302 20.4918603,26.6000721 20.4809397,26.6092814 C19.7396063,27.6056767 18.4009397,30.2249558 17.3584,31.3295605 C19.7058286,25.9518395 19.6657016,15.5435372 15.6593524,16.3833744 C13.5681778,16.8039326 11.6885587,19.6956535 10.8009397,21.4860953 C10.8009397,21.0146302 10.798654,20.8585837 10.7956063,20.8133047 C10.798654,20.8133047 10.8075429,20.7488395 10.8270984,20.3541186 C10.8799238,18.7248395 9.29109841,18.0924674 8.8464,18.7757465 C8.82024127,18.8013279 8.54443175,31.768793 8.5159873,33.0839326 C8.5159873,34.6955605 9.55928889,34.5878628 9.8544,34.0253279 C10.2790349,33.2617233 12.2561778,34.4313047 14.1015111,34.4313047 C14.2676063,34.4346302 14.4273524,34.4208163 14.5853206,34.3862814 C14.7064635,34.4241419 14.8850032,34.4284907 15.1412571,34.4059791 C16.5919238,34.2665605 18.590146,31.5283279 19.9483683,29.3426535 C19.7924317,31.6219558 20.1149714,34.3942116 21.6108444,34.4284907 C22.5096381,34.4829791 23.4879238,33.5236767 24.262527,32.1210488 C24.4397968,33.1854907 24.9548444,34.3780953 25.9874794,34.4313047 C26.8240508,34.4906535 27.846019,33.1742349 28.6749714,31.8319791 C28.8024635,33.3504907 29.2583365,34.4031651 30.2157968,34.4313047 C31.3909079,34.4681419 32.6251937,32.658514 33.5166222,31.1530488 C33.4224,33.1210256 34.1396063,34.7183279 36.2152889,34.3530256 C37.6613841,34.0903047 39.1542095,32.2686535 40.0903365,30.8550256 C39.9694476,32.8424442 40.742019,34.5676535 42.8316698,34.3942116 C43.2750984,34.3581419 43.7484952,34.1430023 44.2211302,33.7866535 C45.3992889,32.9051186 46.5766857,31.1558628 47.254273,29.1410721 C47.3634794,28.8169558 46.9126857,28.5762349 46.7796063,28.9883512" id="Fill-3" fill="#46CBAF"></path>
                <path d="M0.105650794,33.9567953 C0.105650794,34.6781907 0.854095238,36.1450279 4.33244444,36.0150744 C7.49231746,35.8953535 7.13980952,34.288586 7.13980952,34.288586 C7.13980952,34.288586 7.12685714,33.5004233 6.02361905,33.293214 C4.45053968,32.9985163 3.13244444,33.6380512 2.94247619,33.8145628 C2.75504762,33.9926093 3.1895873,34.079586 3.37955556,33.9910744 C4.87466667,33.293214 6.11911111,33.8145628 6.11911111,33.8145628 C6.11911111,33.8145628 6.55365079,33.9700977 6.56406349,34.3108419 C6.57269841,34.6564465 6.22171429,34.8048186 5.98984127,34.8672372 C5.01333333,35.1274 1.27238095,35.5182837 0.868063492,34.0274 C0.617142857,33.1018651 2.11428571,32.2888884 5.11542857,32.3405628 C5.77625397,32.352586 7.49815873,32.5884465 8.49447619,33.1420279 L8.49447619,32.2062605 C7.62819048,31.7885163 6.44165079,31.4848651 4.96787302,31.5071209 C1.63911111,31.5610977 0.105650794,32.7145628 0.105650794,33.9567953" id="Fill-5" fill="#46CBAF"></path>
                <path d="M69.936381,27.1662395 C70.3511111,26.6750767 70.7881905,26.8815186 70.9184762,27.3982628 C71.1234286,28.3322395 70.2485079,30.1193558 68.7290159,30.5112628 C68.832127,29.7596814 69.4492698,27.7615186 69.936381,27.1662395 M75.120381,31.5086814 C73.6448254,31.4856581 72.4603175,31.7885419 71.5912381,32.2057744 C71.5183492,32.249007 71.3575873,32.3531233 71.1546667,32.4871698 C70.6972698,32.788007 70.0270476,33.2190535 69.6247619,33.3183093 C68.936254,33.4927744 68.4968889,31.7043791 68.7290159,31.1083326 C68.9740952,31.0249372 69.2016508,30.929007 69.4124444,30.8177279 C71.0099048,29.9845419 71.6194286,28.4087279 71.4581587,27.2163791 C71.2524444,25.5858209 69.9904762,25.2478907 68.9090794,26.0498674 C68.3876825,26.4512395 67.935873,27.0206814 67.5726984,27.6827279 C67.5480635,27.6993558 67.5252063,27.7154721 67.5048889,27.7436116 C66.8341587,28.6783558 64.5446349,32.9051698 63.8218413,32.5920535 C62.7686349,32.1014023 63.9785397,27.043193 64.4656508,23.8294023 C64.8252698,23.8033093 65.24,23.7792628 65.7012063,23.8033093 C66.3980952,23.8033093 66.112381,23.0783326 65.752254,23.0264023 C65.3669841,22.9747279 64.9814603,22.9504256 64.5941587,22.9747279 L64.6739048,22.1185186 C64.7241905,20.6145884 62.8951111,20.2004256 62.4834286,22.7178907 L62.4074921,23.2075186 C61.9935238,23.2581698 61.5569524,23.2845186 61.1447619,23.3131698 C60.3739683,23.3384953 60.3480635,24.0644953 60.8887619,24.1161698 C61.376381,24.1422628 61.816254,24.1161698 62.2271746,24.0903326 C61.8967619,25.655914 61.4111746,27.971286 61.2534603,30.0129372 C60.5128889,31.155914 59.4769524,32.8343093 58.9339683,32.4961233 C57.5704127,31.6417047 59.3476825,27.9577279 59.2692063,26.7139605 C59.1671111,25.1598907 57.1244444,25.2325419 56.4105397,24.6858674 C56.2850794,24.5891698 56.135746,24.4617744 55.9909841,24.3310535 C55.7182222,24.087007 55.2841905,24.209286 55.1798095,24.5633326 L54.9913651,25.2074721 C54.4890159,26.2803558 53.8749206,27.7436116 53.1937778,29.0326581 C53.4330159,25.3949837 53.5272381,21.7777744 53.3174603,18.0804953 C53.2186667,16.6244023 51.0406349,15.1846814 50.1669841,17.1490767 C48.8570159,20.1165186 47.8292063,26.9756581 45.8604444,30.6056581 C45.6948571,30.9087977 44.879873,32.1014023 44.1616508,32.7542395 C44.1591111,32.7542395 44.1591111,32.7565419 44.1591111,32.7565419 C44.0554921,32.8501698 43.9531429,32.9299837 43.8571429,32.9985419 C43.4210794,33.2955419 43.7418413,33.9371233 44.2210794,33.7867047 C44.2939683,33.7677744 44.3704127,33.7250535 44.4493968,33.6623791 C45.5168254,32.7969605 46.3307937,31.3779605 46.6020317,30.9430767 C48.9492063,27.1514023 49.5325714,20.4158209 50.9448889,18.5691 C51.0683175,18.3956581 51.136381,26.9892163 50.9776508,28.0403558 C50.4598095,27.6699372 49.1620317,26.8815186 48.8623492,26.6546116 C48.6035556,26.4681233 48.2787302,26.7318674 48.7638095,27.3391698 C49.0629841,27.7044721 49.7418413,28.1674953 50.8753016,28.8049837 C50.9339683,29.4419605 50.6208254,31.4344953 50.8679365,33.6480535 C51.2212063,34.5935419 52.6972698,34.7012395 52.8097778,33.7703326 C52.9055238,32.7199605 52.9964444,31.6787977 53.0772063,30.6371233 C53.1005714,30.6143558 53.1229206,30.5854488 53.1427302,30.5519372 C54.1710476,28.944914 55.0215873,27.4146349 56.0519365,25.5737977 C56.9263492,25.7551698 57.2869841,26.2481233 57.0033016,26.9976581 C56.1540317,29.2291233 55.4335238,34.2077744 58.1616508,34.4152395 C59.1368889,34.5034953 60.327746,32.9161698 61.208254,31.5002395 C61.2468571,33.0839837 61.6267937,34.2707047 62.664,34.4088442 C64.0811429,34.5935419 65.5742222,32.4590302 66.6606984,30.5736814 C66.4209524,32.7087047 67.1561905,34.6615884 69.3733333,34.4774023 C69.5147937,34.4653791 69.6521905,34.4374953 69.7880635,34.3942628 C69.8411429,34.3778907 69.8952381,34.3604953 69.9452698,34.3372163 C70.007746,34.3124023 70.0633651,34.2842628 70.1227937,34.2553558 L70.1253333,34.2553558 L70.1319365,34.2527977 L70.1431111,34.2435884 C70.2528254,34.1783558 70.3635556,34.1113326 70.4750476,34.0363791 C70.544127,33.9831698 70.608127,33.9261233 70.6634921,33.8644721 C70.687873,33.833007 70.7155556,33.8020535 70.7460317,33.7726349 C70.9606349,33.5393326 71.255746,33.3254721 71.6085079,33.1379605 C71.6135873,33.1341233 71.615873,33.1307977 71.6229841,33.126193 C71.8937143,32.9757744 72.2132063,32.8501698 72.5555556,32.7488674 C72.5608889,32.7488674 72.5659683,32.7460535 72.5687619,32.7424721 C72.6820317,32.7087047 72.8013968,32.6744256 72.9151746,32.6465419 C72.9855238,32.6286349 73.056381,32.6094488 73.1297778,32.5948674 C73.2786032,32.558286 73.4314921,32.5268209 73.5777778,32.5017512 C74.1502222,32.393286 74.6706032,32.3457047 74.9730794,32.3395651 C76.6967619,32.3114256 77.9259683,32.5672395 78.6104127,32.9678442 C79.1173333,33.2594721 79.3258413,33.6311698 79.2191746,34.0251233 C78.8123175,35.5180535 75.0746667,35.1274256 74.0986667,34.8659837 C73.8655238,34.8061233 73.5137778,34.6564721 73.5246984,34.3103558 C73.5335873,33.9693558 73.9696508,33.8158674 73.9696508,33.8158674 C73.9696508,33.8158674 75.2115556,33.2932395 76.7092063,33.9926349 C76.8966349,34.0796116 77.3311746,33.9926349 77.1422222,33.8158674 C76.9573333,33.6403791 75.6372063,32.9985419 74.063873,33.2932395 C72.9606349,33.5004488 72.9471746,34.2870767 72.9471746,34.2870767 C72.9471746,34.2870767 72.5956825,35.8953791 75.7558095,36.0156116 C79.2333968,36.1463326 79.983619,34.6782163 79.983619,33.9583558 L79.983619,33.9435186 C79.9711746,32.7061465 78.4354286,31.5626581 75.120381,31.5086814" id="Fill-7" fill="#00344E"></path>
                <path d="M23.4821333,41.2280256 L23.4922921,42.1113512 C23.5463873,42.1157 23.7498159,42.1172349 24.1041016,42.1172349 C24.2788317,42.112886 24.420546,42.074514 24.5300063,41.9985372 C24.6397206,41.924607 24.6948317,41.8115372 24.6948317,41.661886 C24.6948317,41.3651419 24.492927,41.2175372 24.0881016,41.2175372 L23.4821333,41.2280256 Z M24.4022603,39.8325605 C24.3070222,39.7583744 24.1841016,39.7212814 24.0350222,39.7164209 L23.8737524,39.7164209 L23.636546,39.7164209 L23.4821333,39.7164209 L23.4821333,40.6381186 C23.6558476,40.6381186 23.8425143,40.6355605 24.0408635,40.6276302 C24.1932444,40.6276302 24.3156571,40.5841419 24.4075937,40.4969093 C24.4997841,40.4091651 24.5460063,40.2881651 24.5460063,40.1349326 C24.5460063,40.0070256 24.4974984,39.9062349 24.4022603,39.8325605 Z M24.9079111,39.3713279 C25.1347048,39.5631884 25.2487365,39.8046767 25.2487365,40.0978395 C25.2487365,40.2720488 25.2040381,40.4260488 25.1154032,40.557793 C25.0260063,40.6903047 24.9124825,40.7857233 24.7740698,40.8422581 C24.9663238,40.8888163 25.1232762,40.9811651 25.2487365,41.1172581 C25.3719111,41.2553977 25.4346413,41.4252581 25.4346413,41.6296535 C25.4346413,41.9545372 25.3475302,42.2072814 25.1738159,42.3904442 C25.0003556,42.5718163 24.7621333,42.6797698 24.460673,42.7120023 C24.2831492,42.7306767 23.9755937,42.7391186 23.5352127,42.7391186 L23.0991492,42.7329791 C22.996546,42.7329791 22.9145143,42.6999791 22.8522921,42.6332116 C22.7895619,42.5677233 22.7555302,42.4743512 22.7479111,42.3525837 L22.7532444,41.5869326 L22.7593397,40.6977233 C22.7593397,40.557793 22.756546,40.3554442 22.7512127,40.088886 C22.7458794,39.823607 22.7430857,39.622793 22.7430857,39.4867 C22.7430857,39.3869326 22.7697524,39.3040488 22.8230857,39.237793 C22.8759111,39.171793 22.9470222,39.1316302 23.0359111,39.1173047 C23.2027683,39.0955605 23.5374984,39.0850721 24.0408635,39.0850721 C24.3910857,39.0850721 24.6806095,39.1802349 24.9079111,39.3713279 Z" id="Fill-9" fill="#00344E"></path>
                <path d="M27.6826667,40.5205209 C27.7476825,40.3422186 27.8500317,40.2524279 27.991746,40.2524279 C28.0907937,40.2524279 28.1822222,40.2818465 28.2660317,40.3422186 C28.3495873,40.4000326 28.3907302,40.4693581 28.3907302,40.5471256 C28.3907302,40.6297535 28.3655873,40.7251721 28.3158095,40.8318465 C27.8022857,41.988893 27.4099048,42.838707 27.1414603,43.3815442 C26.9390476,43.7532419 26.6662857,43.9384512 26.3216508,43.9384512 C26.0097778,43.9384512 25.8538413,43.8202651 25.8538413,43.5846605 C25.8538413,43.3623581 25.9653333,43.2528698 26.1893333,43.2528698 C26.2848254,43.2528698 26.36,43.230614 26.4146032,43.1855907 C26.4699683,43.1408233 26.527619,43.0602419 26.5873016,42.9420558 C26.7147937,42.6913581 26.7808254,42.5647302 26.784381,42.5614047 L26.6568889,42.3045674 L25.9861587,40.8579395 C25.9229206,40.7331023 25.8904127,40.627707 25.8904127,40.5414977 C25.8904127,40.459893 25.9328254,40.3895442 26.016127,40.3304512 C26.0996825,40.2718698 26.1857778,40.242707 26.2744127,40.242707 C26.3526349,40.242707 26.4133333,40.2544744 26.4542222,40.2798 C26.4973968,40.3051256 26.5324444,40.349893 26.5608889,40.4133349 C26.9410794,41.3531953 27.1391746,41.8418 27.1564444,41.881707 L27.6826667,40.5205209 Z" id="Fill-11" fill="#00344E"></path>
                <path d="M33.1604571,39.5617302 C33.1569016,39.6650791 33.129727,39.7500093 33.0776635,39.8165209 C33.025854,39.8825209 32.9516952,39.9168 32.8526476,39.9168 C32.7802667,39.9116837 32.6936635,39.8871256 32.585219,39.8410791 C32.4021079,39.7663814 32.2202667,39.7277535 32.0447746,39.7277535 C31.7776,39.7277535 31.5464889,39.842614 31.3499175,40.0713116 C31.153346,40.2994977 31.0525206,40.5931721 31.049219,40.9541256 C31.0461714,41.2797767 31.1475048,41.5478698 31.3519492,41.760707 C31.5584254,41.9735442 31.7961397,42.0812419 32.0650921,42.0853349 C32.2568381,42.0853349 32.4511238,42.0364744 32.649727,41.9405442 C32.7749333,41.8755674 32.8648381,41.8461488 32.921473,41.8489628 C33.0146794,41.8489628 33.0860444,41.8888698 33.1396317,41.9691953 C33.193219,42.0497767 33.217854,42.1408465 33.2142984,42.2401023 C33.209727,42.3800326 33.081219,42.5053814 32.8275048,42.6171721 C32.5748063,42.7315209 32.2984889,42.7826837 32.0016,42.7755209 C31.5436952,42.7683581 31.1462349,42.6020791 30.8064254,42.274893 C30.4689016,41.9482186 30.3015365,41.5135907 30.3104254,40.9712651 C30.313473,40.5916372 30.4056635,40.2524279 30.5836952,39.9531256 C30.7629968,39.6528 30.9864889,39.4281953 31.2534095,39.2785442 C31.5210921,39.1278698 31.8007111,39.0570093 32.0917587,39.0636605 C32.4036317,39.0636605 32.6626794,39.1125209 32.8676317,39.2081953 C33.065473,39.2941488 33.1642667,39.4113116 33.1604571,39.5617302" id="Fill-13" fill="#00344E"></path>
                <path d="M34.5809778,41.977714 C34.683073,42.091807 34.8092952,42.1493651 34.9578667,42.1493651 C35.1280254,42.1493651 35.2694857,42.0895047 35.3827556,41.972086 C35.4965333,41.8546674 35.5534222,41.6991326 35.5534222,41.505993 C35.5534222,41.3100395 35.4970413,41.1545047 35.3858032,41.0396442 C35.2743111,40.9268302 35.1417397,40.8690163 34.9906286,40.8690163 C34.8235175,40.8690163 34.6871365,40.9314349 34.5825016,41.0539698 C34.4793905,41.1770163 34.4260571,41.3422721 34.4260571,41.5492256 C34.4260571,41.7208767 34.4773587,41.8636209 34.5809778,41.977714 Z M36.2447238,41.8329233 C36.2447238,41.972086 36.2523429,42.1777605 36.2658032,42.4486674 C36.2658032,42.6530628 36.1416127,42.7546209 35.8932317,42.7546209 C35.8056127,42.7546209 35.7367873,42.725714 35.6895492,42.6684116 C35.6415492,42.6111093 35.6037079,42.5169698 35.5742476,42.3849698 C35.4221206,42.641807 35.1846603,42.7704814 34.8626286,42.7704814 C34.5108825,42.7704814 34.226946,42.6563884 34.011327,42.4276907 C33.7941841,42.2000163 33.6867556,41.9112023 33.6867556,41.5663651 C33.6867556,41.1729233 33.8048508,40.8544349 34.0400254,40.6085977 C34.2767238,40.3642953 34.5725968,40.2427837 34.931454,40.2427837 C35.2227556,40.2427837 35.4411683,40.3530395 35.5905016,40.5743186 C35.6047238,40.5029465 35.6199619,40.4476907 35.6382476,40.4085512 C35.691073,40.3085279 35.7845333,40.2586442 35.9143111,40.2586442 C36.1416127,40.2586442 36.2546286,40.3747837 36.2546286,40.6052721 L36.2495492,41.0242953 L36.2447238,41.8329233 Z" id="Fill-15" fill="#00344E"></path>
                <path d="M37.4247111,40.2524791 C37.5742984,40.2524791 37.6642032,40.3223163 37.6964571,40.4622465 L37.7276952,40.6750837 C37.7886476,40.5410372 37.8798222,40.4328279 38.001727,40.3527581 C38.1249016,40.2719209 38.2513778,40.2315023 38.3824254,40.2315023 C38.5982984,40.2315023 38.7077587,40.3435488 38.7077587,40.5689209 C38.7077587,40.6645953 38.6823619,40.7479907 38.6320762,40.8185953 C38.5828063,40.8871535 38.5116952,40.9229674 38.4195048,40.9229674 L38.3400127,40.9229674 C38.1701079,40.9229674 38.033219,40.9851302 37.9303619,41.1125256 C37.8285206,41.2399209 37.7762032,41.4297349 37.7762032,41.684014 C37.7762032,41.7118977 37.777727,41.8385256 37.7835683,42.0628744 C37.7894095,42.2877349 37.7886476,42.4207581 37.7815365,42.4606651 C37.777727,42.6599442 37.6555683,42.7599674 37.4148063,42.7599674 C37.297473,42.7599674 37.2090921,42.7328512 37.1483937,42.6796419 C37.0882032,42.6256651 37.057473,42.5302465 37.057473,42.3954326 C37.057473,42.256014 37.0612825,42.0378047 37.0656,41.7397814 C37.0714413,41.4409907 37.0747429,41.2317349 37.0747429,41.1104791 C37.0747429,41.0534326 37.0724571,40.9656884 37.0714413,40.8475023 C37.0701714,40.7298279 37.0691556,40.6428512 37.0691556,40.5858047 C37.0691556,40.364014 37.1875048,40.2524791 37.4247111,40.2524791" id="Fill-17" fill="#00344E"></path>
                <path d="M39.3504508,38.9516651 C39.420546,38.8933395 39.5117206,38.8654558 39.620927,38.8654558 C39.7453714,38.8654558 39.8401016,38.8961535 39.9056254,38.9578047 C39.9716571,39.0171535 40.0028952,39.1074558 39.9990857,39.2302465 C39.9848635,39.983107 39.9772444,40.8331767 39.9772444,41.7796884 C39.9772444,41.8579674 39.9802921,41.9692465 39.9853714,42.1114791 C39.9907048,42.2539674 39.9934984,42.3575721 39.9934984,42.4220372 C39.9901968,42.5333163 39.9637841,42.6136419 39.9140063,42.6627581 C39.8644825,42.7139209 39.7750857,42.7451302 39.6481016,42.7599674 C39.3788952,42.7845256 39.2412444,42.6185023 39.2384508,42.2616419 C39.2244825,41.7369674 39.2257524,40.7170372 39.2435302,39.2026186 C39.2435302,39.0931302 39.2780698,39.0082 39.3504508,38.9516651" id="Fill-19" fill="#00344E"></path>
                <path d="M41.5464889,41.977714 C41.6485841,42.091807 41.7745524,42.1493651 41.9243937,42.1493651 C42.0935365,42.1493651 42.2360127,42.0895047 42.3490286,41.972086 C42.4635683,41.8546674 42.5196952,41.6991326 42.5196952,41.505993 C42.5196952,41.3100395 42.4635683,41.1545047 42.3520762,41.0396442 C42.2398222,40.9268302 42.1090286,40.8690163 41.9566476,40.8690163 C41.7895365,40.8690163 41.6531556,40.9314349 41.5490286,41.0539698 C41.4438857,41.1770163 41.3920762,41.3422721 41.3920762,41.5492256 C41.3920762,41.7208767 41.4438857,41.8636209 41.5464889,41.977714 Z M43.2107429,41.8329233 C43.2107429,41.972086 43.2181079,42.1777605 43.2320762,42.4486674 C43.2320762,42.6530628 43.1078857,42.7546209 42.8595048,42.7546209 C42.7706159,42.7546209 42.7033143,42.725714 42.6555683,42.6684116 C42.6070603,42.6111093 42.5702349,42.5169698 42.5400127,42.3849698 C42.3881397,42.641807 42.1516952,42.7704814 41.8281397,42.7704814 C41.4779175,42.7704814 41.193727,42.6563884 40.9770921,42.4276907 C40.7604571,42.2000163 40.6530286,41.9112023 40.6530286,41.5663651 C40.6530286,41.1729233 40.7711238,40.8544349 41.0062984,40.6085977 C41.2432508,40.3642953 41.5396317,40.2427837 41.897219,40.2427837 C42.1887746,40.2427837 42.4071873,40.3530395 42.5565206,40.5743186 C42.5707429,40.5029465 42.5867429,40.4476907 42.6040127,40.4085512 C42.6586159,40.3085279 42.7492825,40.2586442 42.881854,40.2586442 C43.1078857,40.2586442 43.2221714,40.3747837 43.2221714,40.6052721 L43.2155683,41.0242953 L43.2107429,41.8329233 Z" id="Fill-21" fill="#00344E"></path>
                <path d="M48.1943111,39.5617302 C48.1902476,39.6650791 48.1620571,39.7500093 48.1110095,39.8165209 C48.058946,39.8825209 47.9840254,39.9168 47.8847238,39.9168 C47.8143746,39.9116837 47.7254857,39.8871256 47.6178032,39.8410791 C47.434946,39.7663814 47.2543746,39.7277535 47.0768508,39.7277535 C46.811454,39.7277535 46.579327,39.842614 46.3817397,40.0713116 C46.1859302,40.2994977 46.0856127,40.5931721 46.0823111,40.9541256 C46.0787556,41.2797767 46.1803429,41.5478698 46.3847873,41.760707 C46.5912635,41.9735442 46.8282159,42.0812419 47.0992,42.0853349 C47.2894222,42.0853349 47.4844698,42.0364744 47.682819,41.9405442 C47.8070095,41.8755674 47.8966603,41.8461488 47.954819,41.8489628 C48.0465016,41.8489628 48.1188825,41.8888698 48.171454,41.9691953 C48.2250413,42.0497767 48.2504381,42.1408465 48.2473905,42.2401023 C48.243327,42.3800326 48.115073,42.5053814 47.8618667,42.6171721 C47.6078984,42.7315209 47.3320889,42.7826837 47.0336762,42.7755209 C46.5767873,42.7683581 46.178819,42.6020791 45.8400254,42.274893 C45.5017397,41.9482186 45.3356444,41.5135907 45.3435175,40.9712651 C45.3460571,40.5916372 45.4374857,40.2524279 45.6170413,39.9531256 C45.7965968,39.6528 46.019581,39.4281953 46.2875175,39.2785442 C46.554946,39.1278698 46.8343111,39.0570093 47.1248508,39.0636605 C47.4369778,39.0636605 47.6952635,39.1125209 47.9012317,39.2081953 C48.099581,39.2941488 48.1968508,39.4113116 48.1943111,39.5617302" id="Fill-23" fill="#00344E"></path>
                <path d="M49.2568127,38.8235279 C49.3703365,38.8235279 49.4587175,38.8514116 49.5196698,38.9110163 C49.582146,38.9706209 49.6133841,39.052993 49.6133841,39.1599233 C49.6133841,39.1852488 49.6123683,39.2466442 49.6110984,39.3448767 C49.6085587,39.4428535 49.6055111,39.6012023 49.6029714,39.8194116 C49.5996698,40.0371093 49.5971302,40.2931791 49.5971302,40.5858302 C49.6580825,40.4771093 49.750781,40.3911558 49.8759873,40.3251558 C50.0024635,40.2586442 50.134781,40.2259 50.2721778,40.2259 C50.5837968,40.2259 50.8232889,40.3274581 50.9904,40.5318535 C51.1570032,40.734714 51.2405587,40.999993 51.2405587,41.3238535 C51.2405587,41.7745977 51.2390349,42.1478302 51.2349714,42.4427837 C51.2319238,42.544086 51.1928127,42.6200628 51.1204317,42.6717372 C51.0475429,42.7229 50.9548444,42.7495047 50.8410667,42.7495047 C50.7374476,42.7495047 50.6526222,42.7229 50.5837968,42.6717372 C50.5142095,42.6200628 50.4819556,42.544086 50.4844952,42.4427837 C50.4844952,42.3931558 50.4898286,42.220993 50.4979556,41.9245047 C50.5078603,41.6277605 50.5116698,41.4476674 50.5116698,41.3826907 C50.5116698,41.2217837 50.4745905,41.0966907 50.4006857,41.0084349 C50.3252571,40.9186442 50.2211302,40.8741326 50.086781,40.8741326 C49.9562413,40.8741326 49.8396698,40.9268302 49.7403683,41.0301791 C49.6418286,41.131993 49.5920508,41.268086 49.5920508,41.4366674 C49.5920508,41.5548535 49.5930667,41.7326442 49.5950984,41.9692721 C49.5971302,42.2074349 49.5971302,42.3732023 49.5971302,42.4652953 C49.5971302,42.5612256 49.5613206,42.6346442 49.4904635,42.6840163 C49.4196063,42.7356907 49.3291937,42.759993 49.2192254,42.759993 C49.1173841,42.759993 49.0320508,42.7328767 48.9637333,42.6796674 C48.8966857,42.6256907 48.8639238,42.5492023 48.8639238,42.4486674 C48.8639238,42.3849698 48.8654476,42.2660163 48.870781,42.093086 C48.8768762,41.9201558 48.8799238,41.8052953 48.8799238,41.7536209 L48.8799238,39.1980395 C48.8799238,38.9486209 49.0053841,38.8235279 49.2568127,38.8235279" id="Fill-25" fill="#00344E"></path>
                <path d="M52.1412317,40.3199372 C52.2105651,40.2672395 52.291581,40.2426814 52.3827556,40.2426814 C52.6329143,40.2426814 52.7573587,40.3554953 52.7611683,40.5795884 C52.7647238,40.7156814 52.7657397,40.9167512 52.7642159,41.1825419 C52.7621841,41.4475651 52.7611683,41.6473558 52.7611683,41.7796116 L52.7672635,42.4275884 C52.7672635,42.5355419 52.7329778,42.6166349 52.6636444,42.6731698 C52.5940571,42.7314953 52.5044063,42.7598907 52.3941841,42.7598907 C52.2875175,42.7598907 52.2011683,42.7361 52.1328508,42.688007 C52.066819,42.6388907 52.0330413,42.5667512 52.0330413,42.4710767 L52.0330413,40.5578442 C52.0360889,40.4514256 52.0724063,40.3716116 52.1412317,40.3199372 M52.059454,39.5645186 C51.9819937,39.4693558 51.9512635,39.3547512 51.9690413,39.2196814 C51.9898667,39.1076349 52.0444698,39.0229605 52.1328508,38.9620767 C52.2230095,38.9019605 52.3162159,38.871007 52.4155175,38.871007 C52.554946,38.871007 52.6605968,38.910914 52.7345016,38.9922628 C52.8089143,39.0718209 52.8465016,39.1733791 52.8465016,39.2941233 C52.8465016,39.4297047 52.8025651,39.532286 52.7131683,39.6016116 C52.6242794,39.6717047 52.5112635,39.7067512 52.3728508,39.7067512 C52.2418032,39.7067512 52.1376762,39.6591698 52.059454,39.5645186" id="Fill-27" fill="#00344E"></path>
                <path d="M53.7131683,38.9516651 C53.7835175,38.8933395 53.8744381,38.8654558 53.9838984,38.8654558 C54.1080889,38.8654558 54.202819,38.8961535 54.2688508,38.9578047 C54.3346286,39.0171535 54.3648508,39.1074558 54.3625651,39.2302465 C54.347581,39.983107 54.3402159,40.8331767 54.3402159,41.7796884 C54.3402159,41.8579674 54.3430095,41.9692465 54.3480889,42.1114791 C54.3534222,42.2539674 54.3559619,42.3575721 54.3559619,42.4220372 C54.3534222,42.5333163 54.3262476,42.6136419 54.2762159,42.6627581 C54.227454,42.7139209 54.138819,42.7451302 54.0103111,42.7599674 C53.7413587,42.7845256 53.6039619,42.6185023 53.6021841,42.2616419 C53.5877079,41.7369674 53.5892317,40.7170372 53.6065016,39.2026186 C53.6065016,39.0931302 53.642819,39.0082 53.7131683,38.9516651" id="Fill-29" fill="#00344E"></path>
                <path d="M55.9229714,40.9419744 C55.8246857,41.0279279 55.7705905,41.1307651 55.7601778,41.2484395 C56.0552889,41.2484395 56.3435429,41.2428116 56.6264635,41.2279744 C56.6693841,41.2279744 56.6902095,41.217486 56.6902095,41.1957419 C56.6902095,41.0819047 56.6500825,40.9880209 56.5683048,40.9166488 C56.486019,40.8460442 56.3882413,40.8094628 56.270654,40.8094628 C56.1357968,40.8094628 56.0192254,40.854486 55.9229714,40.9419744 M55.9384635,42.0153698 C56.0425905,42.1008116 56.1619556,42.1440442 56.2980825,42.1440442 C56.4601143,42.1440442 56.6094476,42.1028581 56.7437968,42.0197186 C56.8367492,41.9706023 56.9159873,41.9452767 56.982527,41.9452767 C57.0637968,41.9452767 57.1351619,41.9805791 57.1933206,42.0496488 C57.2522413,42.1197419 57.2811937,42.2010907 57.2811937,42.2939512 C57.2811937,42.4116256 57.2210032,42.5060209 57.1011302,42.5781605 C56.8908444,42.7091372 56.6056381,42.7756488 56.2439873,42.7756488 C55.9072254,42.7756488 55.6199873,42.658486 55.3832889,42.4249279 C55.1448127,42.191114 55.0246857,41.9081837 55.0216381,41.5758814 C55.0216381,41.194207 55.1407492,40.8739279 55.3832889,40.6170907 C55.6243048,40.3597419 55.9199238,40.2315791 56.270654,40.2315791 C56.5865905,40.2315791 56.8494476,40.3316023 57.0604952,40.5336953 C57.270781,40.7368116 57.3774476,40.9670442 57.3774476,41.2279744 C57.3774476,41.3883698 57.3490032,41.502207 57.2944,41.5705093 C57.2390349,41.6390674 57.1272889,41.6743698 56.9566222,41.678207 C56.7328762,41.6848581 56.334654,41.6899744 55.7601778,41.6940674 C55.774654,41.8222302 55.8340825,41.9286488 55.9384635,42.0153698" id="Fill-31" fill="#00344E"></path>
            </g>
        </g>
    </g>
</svg>