<?xml version="1.0" encoding="UTF-8"?>
<svg width="50px" height="221px" viewBox="0 0 50 221" version="1.1" xmlns="http://www.w3.org/2000/svg" xmlns:xlink="http://www.w3.org/1999/xlink">
    <!-- Generator: sketchtool 52.1 (67048) - http://www.bohemiancoding.com/sketch -->
    <title>69D53B4D-5477-4920-B12C-A4750201A267</title>
    <desc>Created with sketchtool.</desc>
    <defs>
        <polygon id="path-1" points="0.000388656533 0 49.077633 0 49.077633 220.353838 0.000388656533 220.353838"></polygon>
    </defs>
    <g id="Welcome" stroke="none" stroke-width="1" fill="none" fill-rule="evenodd">
        <g id="P1" transform="translate(-914.000000, -369.000000)">
            <g id="Group-10" transform="translate(914.000000, 369.000000)">
                <mask id="mask-2" fill="white">
                    <use xlink:href="#path-1"></use>
                </mask>
                <g id="Clip-2"></g>
                <path d="M21.254,8.807 L27.917,8.807 L27.917,3.701 L21.254,3.701 L21.254,8.807 Z M22.928,150.471 C22.928,151.497 22.929,152.388 22.928,153.278 C22.925,159.674 22.92,166.07 22.916,172.467 C22.915,174.71 22.899,176.953 22.925,179.195 C22.938,180.332 22.712,181.687 24.489,181.729 C26.446,181.775 26.2,180.307 26.202,179.092 C26.215,170.204 26.21,161.316 26.195,152.427 C26.194,151.793 26.069,151.158 25.995,150.471 L22.928,150.471 Z M23.08,146.657 L26.001,146.657 L26.001,78.811 L23.08,78.811 L23.08,146.657 Z M29.802,75.022 C29.91,74.446 30.034,73.975 30.082,73.496 C31.716,56.852 33.404,40.212 34.892,23.554 C35.074,21.51 34.584,19.184 33.71,17.314 C31.733,13.083 26.18,11.206 21.206,12.689 C16.292,14.154 13.631,18.37 14.164,23.902 C15.313,35.828 16.466,47.755 17.64,59.678 C18.143,64.785 18.707,69.885 19.246,75.022 L29.802,75.022 Z M19.4,150.323 C15.58,150.323 12.101,150.235 8.629,150.349 C5.168,150.462 3.611,152.053 3.6,155.532 C3.562,168.943 3.398,182.358 3.662,195.763 C3.905,208.16 12.447,216.416 24.831,216.731 C28.993,216.837 33.16,216.772 37.324,216.764 C42.79,216.753 45.531,213.969 45.537,208.42 C45.549,196.925 45.551,185.43 45.553,173.936 C45.555,167.855 45.581,161.775 45.535,155.695 C45.511,152.578 44.406,150.753 41.886,150.578 C37.943,150.306 33.967,150.506 29.727,150.506 L29.727,153.331 C29.728,161.911 29.733,170.49 29.729,179.07 C29.726,183.314 28.125,185.271 24.661,185.292 C21.077,185.314 19.428,183.339 19.402,178.986 C19.395,177.986 19.4,176.987 19.4,175.987 L19.4,150.323 Z M19.292,78.8 C16.18,79.158 15.825,77.213 15.6,74.824 C14.004,57.915 12.289,41.018 10.679,24.11 C10.179,18.859 11.883,14.476 16.167,11.158 C16.869,10.615 17.381,9.508 17.499,8.599 C17.713,6.961 17.501,5.272 17.577,3.61 C17.681,1.362 18.829,0.042 21.177,0.016 C23.426,-0.01 25.675,-0.002 27.924,0.019 C30.272,0.041 31.381,1.358 31.555,3.598 C31.581,3.93 31.571,3.194 31.563,4.597 C31.555,6 31.555,7.5 31.555,8.807 C31.555,10.114 33.0917292,11.7485131 34.902,13.12 C38.09,15.538 38.871,19.58 38.488,23.576 C36.827,40.897 35.082,58.21 33.442,75.533 C33.233,77.737 32.523,79.042 29.918,78.668 L29.918,146.787 C31.727,146.787 33.518,146.785 35.31,146.788 C37.059,146.791 38.811,146.737 40.556,146.815 C46.004,147.057 49.005,150.081 49.042,155.546 C49.107,165.042 49.063,174.537 49.064,184.033 C49.065,192.445 49.1,200.859 49.051,209.272 C49.013,215.773 44.536,220.278 38.054,220.267 C32.228,220.255 26.314,220.659 20.595,219.82 C8.421,218.032 0.455,208.677 0.179,196.03 C-0.118,182.377 0.026,168.712 0.111,155.052 C0.143,149.972 3.302,147.005 8.565,146.826 C12.049,146.707 15.541,146.804 19.292,146.804 L19.292,78.8 Z" id="Fill-1" fill="#00344E" mask="url(#mask-2)"></path>
                <path d="M19.4001,150.3234 L19.4001,175.9864 C19.4001,176.9864 19.3951,177.9854 19.4011,178.9854 C19.4281,183.3394 21.0771,185.3134 24.6611,185.2924 C28.1251,185.2704 29.7261,183.3134 29.7291,179.0694 C29.7331,170.4904 29.7281,161.9114 29.7271,153.3314 L29.7271,150.5064 C33.9671,150.5064 37.9431,150.3054 41.8861,150.5784 C44.4061,150.7534 45.5111,152.5784 45.5351,155.6944 C45.5811,161.7744 45.5551,167.8544 45.5531,173.9354 C45.5501,185.4294 45.5491,196.9254 45.5371,208.4204 C45.5311,213.9694 42.7901,216.7534 37.3241,216.7634 C33.1601,216.7714 28.9931,216.8374 24.8311,216.7304 C12.4471,216.4164 3.9051,208.1604 3.6621,195.7624 C3.3981,182.3574 3.5621,168.9424 3.6001,155.5324 C3.6101,152.0524 5.1681,150.4624 8.6291,150.3484 C12.1011,150.2344 15.5801,150.3234 19.4001,150.3234" id="Fill-3" fill="#FFFFFF" mask="url(#mask-2)"></path>
                <path d="M24.6467,17.5231 C21.5797,17.4891 19.4507,19.5631 19.4257,22.6081 C19.4007,25.5181 21.6637,27.9181 24.4957,27.9841 C27.2847,28.0501 29.6937,25.6441 29.7157,22.7691 C29.7397,19.6841 27.6837,17.5571 24.6467,17.5231 M29.8027,75.0221 L19.2467,75.0221 C18.7067,69.8851 18.1437,64.7851 17.6407,59.6781 C16.4657,47.7541 15.3137,35.8281 14.1647,23.9021 C13.6307,18.3701 16.2927,14.1541 21.2057,12.6891 C26.1807,11.2061 31.7327,13.0831 33.7097,17.3141 C34.5837,19.1841 35.0747,21.5101 34.8917,23.5541 C33.4037,40.2111 31.7157,56.8521 30.0817,73.4961 C30.0347,73.9751 29.9097,74.4461 29.8027,75.0221" id="Fill-4" fill="#FFFFFF" mask="url(#mask-2)"></path>
                <polygon id="Fill-5" fill="#FFFFFF" mask="url(#mask-2)" points="23.08 146.656 26.001 146.656 26.001 78.81 23.08 78.81"></polygon>
                <path d="M22.9284,150.4709 L25.9944,150.4709 C26.0684,151.1579 26.1944,151.7929 26.1954,152.4269 C26.2104,161.3159 26.2154,170.2039 26.2024,179.0919 C26.2004,180.3069 26.4464,181.7749 24.4894,181.7289 C22.7124,181.6869 22.9384,180.3319 22.9254,179.1959 C22.8994,176.9529 22.9154,174.7099 22.9164,172.4669 C22.9194,166.0709 22.9244,159.6739 22.9284,153.2779 C22.9284,152.3879 22.9284,151.4969 22.9284,150.4709" id="Fill-6" fill="#FFFFFF" mask="url(#mask-2)"></path>
                <polygon id="Fill-7" fill="#FFFFFF" mask="url(#mask-2)" points="21.254 8.807 27.917 8.807 27.917 3.701 21.254 3.701"></polygon>
                <path d="M29.7162,22.7694 C29.6942,25.6434 27.2852,28.0504 24.4962,27.9844 C21.6642,27.9174 19.4012,25.5184 19.4252,22.6084 C19.4512,19.5624 21.5802,17.4894 24.6472,17.5234 C27.6842,17.5564 29.7392,19.6844 29.7162,22.7694 Z" id="Fill-8" fill="#00344E" mask="url(#mask-2)"></path>
            </g>
        </g>
    </g>
</svg>